<?xml version="1.0" encoding="UTF-8" standalone="no"?>
<!-- Created with Inkscape (http://www.inkscape.org/) -->

<svg
   xmlns:dc="http://purl.org/dc/elements/1.1/"
   xmlns:cc="http://creativecommons.org/ns#"
   xmlns:rdf="http://www.w3.org/1999/02/22-rdf-syntax-ns#"
   xmlns:svg="http://www.w3.org/2000/svg"
   xmlns="http://www.w3.org/2000/svg"
   xmlns:sodipodi="http://sodipodi.sourceforge.net/DTD/sodipodi-0.dtd"
   xmlns:inkscape="http://www.inkscape.org/namespaces/inkscape"
   width="214"
   height="71"
   viewBox="0 0 214 71.000001"
   id="svg2"
   version="1.1"
   inkscape:version="0.91 r13725"
   sodipodi:docname="rubion_en.svg">
  <defs
     id="defs4" />
  <sodipodi:namedview
     id="base"
     pagecolor="#ffffff"
     bordercolor="#666666"
     borderopacity="1.0"
     inkscape:pageopacity="0.0"
     inkscape:pageshadow="2"
     inkscape:zoom="2.8"
     inkscape:cx="-62.851668"
     inkscape:cy="-17.896992"
     inkscape:document-units="px"
     inkscape:current-layer="layer1"
     showgrid="false"
     units="px"
     inkscape:window-width="1920"
     inkscape:window-height="987"
     inkscape:window-x="0"
     inkscape:window-y="56"
     inkscape:window-maximized="1" />
  <metadata
     id="metadata7">
    <rdf:RDF>
      <cc:Work
         rdf:about="">
        <dc:format>image/svg+xml</dc:format>
        <dc:type
           rdf:resource="http://purl.org/dc/dcmitype/StillImage" />
        <dc:title></dc:title>
      </cc:Work>
    </rdf:RDF>
  </metadata>
  <g
     inkscape:label="Ebene 1"
     inkscape:groupmode="layer"
     id="layer1"
     transform="translate(0,-981.36216)">
    <g
       style="font-style:normal;font-weight:normal;font-size:40px;line-height:125%;font-family:sans-serif;letter-spacing:0px;word-spacing:0px;fill:#000000;fill-opacity:1;stroke:none;stroke-width:1px;stroke-linecap:butt;stroke-linejoin:miter;stroke-opacity:1"
       id="text4136">
      <path
         d="m -1.1444092e-7,1010.3622 0,-28.52002 L 11.28,981.84218 q 4.2,0 6.92,2.36 2.76,2.36 2.76,6.6 0,2.72 -1.44,5.04 -1.44,2.28 -4.2,3.24 l 7.08,11.28002 -5.8,0 -6.6800001,-10.68002 -4.6,0 0,10.68002 -5.32000001444092,0 z M 5.3199999,995.20218 l 5.3200001,0 q 2.36,0 3.72,-1.12 1.4,-1.16 1.4,-3.32 0,-4.44 -5.2,-4.44 l -5.2400001,0 0,8.88 z"
         style="font-size:40px;letter-spacing:1px;fill:#e7e7e7;fill-opacity:1"
         id="path4992" />
      <path
         d="m 37.975625,1010.8022 q -5.12,0 -8.16,-2.64 -3,-2.64 -3,-7.64 l 0,-18.68002 5.32,0 0,18.04 q 0,2.80002 1.44,4.48002 1.44,1.64 4.4,1.64 5.84,0 5.84,-6.12002 l 0,-18.04 5.32,0 0,18.28002 q 0,5.04 -3.04,7.88 -3.04,2.8 -8.12,2.8 z"
         style="font-size:40px;letter-spacing:1px;fill:#e7e7e7;fill-opacity:1"
         id="path4994" />
      <path
         d="m 55.671875,1010.3622 0,-28.52002 12.24,0 q 4.2,0 6.48,1.88 2.32,1.84 2.32,5.48 0,4.16 -4.04,6.04 l 0,0.04 q 2.4,0.64 3.64,2.52 1.28,1.88 1.28,4.36002 0,3.84 -2.64,6.04 -2.6,2.16 -6.36,2.16 l -12.92,0 z m 5.32,-4.52 6.68,0 q 2.16,0 3.4,-1.04 1.24,-1.04 1.24,-2.96 0,-3.80002 -4.6,-3.80002 l -6.72,0 0,7.80002 z m 0,-12.28002 6.28,0 q 2,0 3.12,-0.96 1.12,-0.96 1.12,-2.72 0,-3.52 -4.48,-3.52 l -6.04,0 0,7.2 z"
         style="font-size:40px;letter-spacing:1px;fill:#e7e7e7;fill-opacity:1"
         id="path4996" />
      <path
         d="m 83.15625,1010.3622 0,-28.52002 5.32,0 0,28.52002 -5.32,0 z"
         style="font-size:40px;letter-spacing:1px;fill:#8dae10;fill-opacity:1"
         id="path4998" />
      <path
         d="m 106.13,1010.8422 q -4.88,0 -8.24,-2.6 -3.36,-2.64 -3.36,-7.24 l 0,-9.12002 q 0,-4.8 3.4,-7.64 3.44,-2.88 8,-2.88 4.8,0 8.2,2.88 3.4,2.88 3.4,7.52 l 0,8.56002 q 0,4.8 -3.44,7.68 -3.4,2.84 -7.96,2.84 z m 0,-4.72 q 2.4,0 4.24,-1.36 1.88,-1.36 1.88,-4.16 l 0,-9.12002 q 0,-2.48 -1.84,-3.92 -1.84,-1.48 -4.48,-1.48 -2.4,0 -4.28,1.36 -1.84,1.36 -1.84,4.16 l 0,9.12002 q 0,2.48 1.84,3.96 1.84,1.44 4.48,1.44 z"
         style="font-size:40px;letter-spacing:1px;fill:#8dae10;fill-opacity:1"
         id="path5000" />
      <path
         d="m 123.59375,1010.3622 0,-28.52002 5.16,0 12.4,19.44002 0.08,0 0,-19.44002 5.12,0 0,28.52002 -5.2,0 -12.36,-19.48002 -0.08,0 0,19.48002 -5.12,0 z"
         style="font-size:40px;letter-spacing:1px;fill:#8dae10;fill-opacity:1"
         id="path5002" />
    </g>
    <g
       style="font-style:normal;font-weight:normal;font-size:40px;line-height:114.99999762%;font-family:sans-serif;letter-spacing:0px;word-spacing:0px;fill:#000000;fill-opacity:1;stroke:none;stroke-width:1px;stroke-linecap:butt;stroke-linejoin:miter;stroke-opacity:1"
       id="text4156">
      <path
         d="m 15.784285,1034.7058 q -1.6775,0 -2.8325,-0.8938 -1.155,-0.9075 -1.155,-2.4887 l 0,-3.135 q 0,-1.6775 1.11375,-2.64 1.1275,-0.9763 2.805,-0.9763 1.52625,0 2.62625,0.8525 1.11375,0.8388 1.11375,2.3788 l 0,0.3025 -1.7325,0 0,-0.1375 q 0,-0.88 -0.61875,-1.32 -0.605,-0.4538 -1.38875,-0.4538 -0.825,0 -1.47125,0.4675 -0.6325,0.4675 -0.6325,1.43 l 0,3.135 q 0,0.8525 0.6325,1.3613 0.6325,0.495 1.54,0.495 0.77,0 1.3475,-0.44 0.59125,-0.4538 0.59125,-1.3338 l 0,-0.1375 1.7325,0 0,0.3025 q 0,1.5538 -1.08625,2.3925 -1.0725,0.8388 -2.585,0.8388 z"
         style="font-style:normal;font-variant:normal;font-weight:bold;font-stretch:normal;font-size:13.75px;line-height:100%;font-family:RubFlama;-inkscape-font-specification:'RubFlama Bold';fill:#e7e7e7;fill-opacity:1"
         id="path5005" />
      <path
         d="m 23.995183,1034.7058 q -1.38875,0 -2.3375,-0.7425 -0.94875,-0.7563 -0.94875,-2.1313 l 0,-1.375 q 0,-1.43 0.92125,-2.255 0.935,-0.825 2.31,-0.825 1.25125,0 2.145,0.7288 0.89375,0.715 0.89375,2.035 l 0,1.3612 -4.52375,0 0,0.385 q 0,0.6463 0.4675,1.0313 0.4675,0.385 1.155,0.385 0.4125,0 0.825,-0.2475 0.4125,-0.2475 0.70125,-0.66 l 1.2925,0.7425 q -0.78375,1.5675 -2.90125,1.5675 z m -1.54,-4.3725 2.84625,0 0,-0.1925 q 0,-0.6738 -0.39875,-1.0038 -0.385,-0.3437 -0.9625,-0.3437 -0.605,0 -1.045,0.3575 -0.44,0.3575 -0.44,1.0862 l 0,0.096 z"
         style="font-style:normal;font-variant:normal;font-weight:bold;font-stretch:normal;font-size:13.75px;line-height:100%;font-family:RubFlama;-inkscape-font-specification:'RubFlama Bold';fill:#e7e7e7;fill-opacity:1"
         id="path5007" />
      <path
         d="m 28.504754,1034.5408 0,-7.04 1.63625,0 0,0.8662 0.0275,0 q 0.70125,-1.0037 1.99375,-1.0037 1.1825,0 1.815,0.7012 0.64625,0.7013 0.64625,1.9663 l 0,4.51 -1.6775,0 0,-4.0838 q 0,-1.6225 -1.30625,-1.6225 -1.4575,0 -1.4575,1.76 l 0,3.9463 -1.6775,0 z"
         style="font-style:normal;font-variant:normal;font-weight:bold;font-stretch:normal;font-size:13.75px;line-height:100%;font-family:RubFlama;-inkscape-font-specification:'RubFlama Bold';fill:#e7e7e7;fill-opacity:1"
         id="path5009" />
      <path
         d="m 38.546551,1034.6508 q -0.86625,0 -1.41625,-0.44 -0.55,-0.44 -0.55,-1.3338 l 0,-4.0425 -0.94875,0 0,-1.3337 0.94875,0 0,-2.1313 1.6775,0 0,2.1313 1.52625,0 0,1.3337 -1.52625,0 0,3.6438 q 0,0.6737 0.66,0.6737 0.45375,0 0.86625,-0.069 l 0,1.43 q -0.53625,0.1375 -1.2375,0.1375 z"
         style="font-style:normal;font-variant:normal;font-weight:bold;font-stretch:normal;font-size:13.75px;line-height:100%;font-family:RubFlama;-inkscape-font-specification:'RubFlama Bold';fill:#e7e7e7;fill-opacity:1"
         id="path5011" />
      <path
         d="m 40.82948,1034.5408 0,-7.04 1.63625,0 0,1.1687 0.0275,0 q 0.3025,-0.55 0.97625,-0.9212 0.6875,-0.385 1.32,-0.385 0.385,0 0.56375,0.041 l 0,1.54 q -0.22,-0.041 -0.6325,-0.041 -0.97625,0 -1.595,0.55 -0.61875,0.5362 -0.61875,1.485 l 0,3.6025 -1.6775,0 z"
         style="font-style:normal;font-variant:normal;font-weight:bold;font-stretch:normal;font-size:13.75px;line-height:100%;font-family:RubFlama;-inkscape-font-specification:'RubFlama Bold';fill:#e7e7e7;fill-opacity:1"
         id="path5013" />
      <path
         d="m 48.411101,1034.6783 q -1.1,0 -1.77375,-0.5638 -0.67375,-0.5775 -0.67375,-1.5675 0,-0.9762 0.75625,-1.5675 0.77,-0.605 1.8425,-0.605 l 1.87,0 0,-0.6462 q 0,-1.0588 -1.3475,-1.0588 -0.56375,0 -0.92125,0.1925 -0.34375,0.1788 -0.34375,0.5088 l 0,0.2475 -1.5125,0 0,-0.1925 q 0,-1.0588 0.825,-1.5538 0.825,-0.5087 1.96625,-0.5087 1.32,0 2.15875,0.5225 0.8525,0.5225 0.8525,1.7187 l 0,3.4238 q 0,1.2925 0.12375,1.5125 l -1.66375,0 q -0.01375,-0.069 -0.04125,-0.3575 l -0.0275,-0.2888 -0.0275,0 q -0.44,0.4675 -0.89375,0.6325 -0.45375,0.1513 -1.16875,0.1513 z m 0.45375,-1.32 q 0.92125,0 1.2375,-0.3713 0.33,-0.3712 0.33,-1.045 l 0,-0.3437 -1.65,0 q -1.1825,0 -1.1825,0.8662 0,0.8938 1.265,0.8938 z"
         style="font-style:normal;font-variant:normal;font-weight:bold;font-stretch:normal;font-size:13.75px;line-height:100%;font-family:RubFlama;-inkscape-font-specification:'RubFlama Bold';fill:#e7e7e7;fill-opacity:1"
         id="path5015" />
      <path
         d="m 55.561316,1034.637 q -0.5775,0 -0.9625,-0.2062 -0.37125,-0.2063 -0.5225,-0.5638 -0.1375,-0.3712 -0.17875,-0.6187 -0.04125,-0.2475 -0.04125,-0.5913 l 0,-7.92 1.6775,0 0,7.9063 q 0,0.5775 0.605,0.5775 0.165,0 0.77,-0.055 l 0,1.2787 q -0.715,0.1925 -1.3475,0.1925 z"
         style="font-style:normal;font-variant:normal;font-weight:bold;font-stretch:normal;font-size:13.75px;line-height:100%;font-family:RubFlama;-inkscape-font-specification:'RubFlama Bold';fill:#e7e7e7;fill-opacity:1"
         id="path5017" />
      <path
         d="m 65.38698,1034.692 q -1.76,0 -2.805,-0.9075 -1.03125,-0.9075 -1.03125,-2.6262 l 0,-6.4213 1.82875,0 0,6.2013 q 0,0.9625 0.495,1.54 0.495,0.5637 1.5125,0.5637 2.0075,0 2.0075,-2.1037 l 0,-6.2013 1.82875,0 0,6.2838 q 0,1.7325 -1.045,2.7087 -1.045,0.9625 -2.79125,0.9625 z"
         style="font-style:normal;font-variant:normal;font-weight:bold;font-stretch:normal;font-size:13.75px;line-height:100%;font-family:RubFlama;-inkscape-font-specification:'RubFlama Bold';fill:#e7e7e7;fill-opacity:1"
         id="path5019" />
      <path
         d="m 71.043816,1034.5408 0,-7.04 1.63625,0 0,0.8662 0.0275,0 q 0.70125,-1.0037 1.99375,-1.0037 1.1825,0 1.815,0.7012 0.64625,0.7013 0.64625,1.9663 l 0,4.51 -1.6775,0 0,-4.0838 q 0,-1.6225 -1.30625,-1.6225 -1.4575,0 -1.4575,1.76 l 0,3.9463 -1.6775,0 z"
         style="font-style:normal;font-variant:normal;font-weight:bold;font-stretch:normal;font-size:13.75px;line-height:100%;font-family:RubFlama;-inkscape-font-specification:'RubFlama Bold';fill:#e7e7e7;fill-opacity:1"
         id="path5021" />
      <path
         d="m 78.885613,1034.5408 0,-7.04 1.6775,0 0,7.04 -1.6775,0 z m 0,-8.1125 0,-1.7875 1.6775,0 0,1.7875 -1.6775,0 z"
         style="font-style:normal;font-variant:normal;font-weight:bold;font-stretch:normal;font-size:13.75px;line-height:100%;font-family:RubFlama;-inkscape-font-specification:'RubFlama Bold';fill:#e7e7e7;fill-opacity:1"
         id="path5023" />
      <path
         d="m 84.576824,1034.6508 q -0.86625,0 -1.41625,-0.44 -0.55,-0.44 -0.55,-1.3338 l 0,-4.0425 -0.94875,0 0,-1.3337 0.94875,0 0,-2.1313 1.6775,0 0,2.1313 1.52625,0 0,1.3337 -1.52625,0 0,3.6438 q 0,0.6737 0.66,0.6737 0.45375,0 0.86625,-0.069 l 0,1.43 q -0.53625,0.1375 -1.2375,0.1375 z"
         style="font-style:normal;font-variant:normal;font-weight:bold;font-stretch:normal;font-size:13.75px;line-height:100%;font-family:RubFlama;-inkscape-font-specification:'RubFlama Bold';fill:#e7e7e7;fill-opacity:1"
         id="path5025" />
      <path
         d="m 90.709754,1034.5408 0,-5.7338 -1.00375,0 0,-1.3062 1.00375,0 0,-0.9075 q 0,-2.0625 2.035,-2.0625 0.39875,0 0.83875,0.069 l 0,1.4438 q -0.3575,-0.041 -0.6325,-0.041 -0.5775,0 -0.5775,0.5363 l 0,0.9625 1.21,0 0,1.3062 -1.21,0 0,5.7338 -1.66375,0 z"
         style="font-style:normal;font-variant:normal;font-weight:bold;font-stretch:normal;font-size:13.75px;line-height:100%;font-family:RubFlama;-inkscape-font-specification:'RubFlama Bold';fill:#e7e7e7;fill-opacity:1"
         id="path5027" />
      <path
         d="m 97.63159,1034.7058 q -1.3475,0 -2.29625,-0.7288 -0.935,-0.7425 -0.935,-2.035 l 0,-1.6087 q 0,-1.3613 0.9625,-2.1588 0.9625,-0.7975 2.21375,-0.7975 1.33375,0 2.2825,0.8113 0.94875,0.8112 0.94875,2.1175 l 0,1.4437 q 0,1.3613 -0.9625,2.1588 -0.9625,0.7975 -2.21375,0.7975 z m 0,-1.4163 q 0.605,0 1.03125,-0.3437 0.44,-0.3438 0.44,-1.045 l 0,-1.7463 q 0,-0.6187 -0.42625,-0.9762 -0.42625,-0.3713 -1.1,-0.3713 -0.605,0 -1.045,0.3438 -0.42625,0.3437 -0.42625,1.045 l 0,1.7325 q 0,0.6187 0.42625,0.99 0.44,0.3712 1.1,0.3712 z"
         style="font-style:normal;font-variant:normal;font-weight:bold;font-stretch:normal;font-size:13.75px;line-height:100%;font-family:RubFlama;-inkscape-font-specification:'RubFlama Bold';fill:#e7e7e7;fill-opacity:1"
         id="path5029" />
      <path
         d="m 102.22108,1034.5408 0,-7.04 1.63625,0 0,1.1687 0.0275,0 q 0.3025,-0.55 0.97625,-0.9212 0.6875,-0.385 1.32,-0.385 0.385,0 0.56375,0.041 l 0,1.54 q -0.22,-0.041 -0.6325,-0.041 -0.97625,0 -1.595,0.55 -0.61875,0.5362 -0.61875,1.485 l 0,3.6025 -1.6775,0 z"
         style="font-style:normal;font-variant:normal;font-weight:bold;font-stretch:normal;font-size:13.75px;line-height:100%;font-family:RubFlama;-inkscape-font-specification:'RubFlama Bold';fill:#e7e7e7;fill-opacity:1"
         id="path5031" />
      <path
         d="m 111.40952,1034.5408 0,-9.8038 1.82875,0 0,9.8038 -1.82875,0 z"
         style="font-style:normal;font-variant:normal;font-weight:bold;font-stretch:normal;font-size:13.75px;line-height:100%;font-family:RubFlama;-inkscape-font-specification:'RubFlama Bold';fill:#e7e7e7;fill-opacity:1"
         id="path5033" />
      <path
         d="m 118.04175,1034.7058 q -1.3475,0 -2.29625,-0.7288 -0.935,-0.7425 -0.935,-2.035 l 0,-1.6087 q 0,-1.3613 0.9625,-2.1588 0.9625,-0.7975 2.21375,-0.7975 1.33375,0 2.2825,0.8113 0.94875,0.8112 0.94875,2.1175 l 0,1.4437 q 0,1.3613 -0.9625,2.1588 -0.9625,0.7975 -2.21375,0.7975 z m 0,-1.4163 q 0.605,0 1.03125,-0.3437 0.44,-0.3438 0.44,-1.045 l 0,-1.7463 q 0,-0.6187 -0.42625,-0.9762 -0.42625,-0.3713 -1.1,-0.3713 -0.605,0 -1.045,0.3438 -0.42625,0.3437 -0.42625,1.045 l 0,1.7325 q 0,0.6187 0.42625,0.99 0.44,0.3712 1.1,0.3712 z"
         style="font-style:normal;font-variant:normal;font-weight:bold;font-stretch:normal;font-size:13.75px;line-height:100%;font-family:RubFlama;-inkscape-font-specification:'RubFlama Bold';fill:#e7e7e7;fill-opacity:1"
         id="path5035" />
      <path
         d="m 122.71374,1034.5408 0,-7.04 1.63625,0 0,0.8662 0.0275,0 q 0.70125,-1.0037 1.99375,-1.0037 1.1825,0 1.815,0.7012 0.64625,0.7013 0.64625,1.9663 l 0,4.51 -1.6775,0 0,-4.0838 q 0,-1.6225 -1.30625,-1.6225 -1.4575,0 -1.4575,1.76 l 0,3.9463 -1.6775,0 z"
         style="font-style:normal;font-variant:normal;font-weight:bold;font-stretch:normal;font-size:13.75px;line-height:100%;font-family:RubFlama;-inkscape-font-specification:'RubFlama Bold';fill:#e7e7e7;fill-opacity:1"
         id="path5037" />
      <path
         d="m 133.99304,1034.7058 q -1.1275,0 -1.7875,-0.8663 l -0.0413,0 0,0.7013 -1.60875,0 0,-9.8038 1.6775,0 0,3.575 0.0138,0 q 0.70125,-0.9487 1.93875,-0.9487 1.21,0 1.99375,0.7425 0.78375,0.7287 0.78375,2.035 l 0,1.705 q 0,1.3612 -0.86625,2.1175 -0.8525,0.7425 -2.10375,0.7425 z m -0.20625,-1.4163 q 0.605,0 1.03125,-0.3437 0.44,-0.3438 0.44,-1.045 l 0,-1.7463 q 0,-0.6187 -0.42625,-0.9762 -0.42625,-0.3713 -1.1,-0.3713 -0.59125,0 -1.045,0.3988 -0.45375,0.385 -0.45375,1.1 l 0,1.6225 q 0,0.6187 0.44,0.99 0.44,0.3712 1.11375,0.3712 z"
         style="font-style:normal;font-variant:normal;font-weight:bold;font-stretch:normal;font-size:13.75px;line-height:100%;font-family:RubFlama;-inkscape-font-specification:'RubFlama Bold';fill:#e7e7e7;fill-opacity:1"
         id="path5039" />
      <path
         d="m 141.40729,1034.7058 q -1.38875,0 -2.3375,-0.7425 -0.94875,-0.7563 -0.94875,-2.1313 l 0,-1.375 q 0,-1.43 0.92125,-2.255 0.935,-0.825 2.31,-0.825 1.25125,0 2.145,0.7288 0.89375,0.715 0.89375,2.035 l 0,1.3612 -4.52375,0 0,0.385 q 0,0.6463 0.4675,1.0313 0.4675,0.385 1.155,0.385 0.4125,0 0.825,-0.2475 0.4125,-0.2475 0.70125,-0.66 l 1.2925,0.7425 q -0.78375,1.5675 -2.90125,1.5675 z m -1.54,-4.3725 2.84625,0 0,-0.1925 q 0,-0.6738 -0.39875,-1.0038 -0.385,-0.3437 -0.9625,-0.3437 -0.605,0 -1.045,0.3575 -0.44,0.3575 -0.44,1.0862 l 0,0.096 z"
         style="font-style:normal;font-variant:normal;font-weight:bold;font-stretch:normal;font-size:13.75px;line-height:100%;font-family:RubFlama;-inkscape-font-specification:'RubFlama Bold';fill:#e7e7e7;fill-opacity:1"
         id="path5041" />
      <path
         d="m 147.91061,1034.6783 q -1.1,0 -1.77375,-0.5638 -0.67375,-0.5775 -0.67375,-1.5675 0,-0.9762 0.75625,-1.5675 0.77,-0.605 1.8425,-0.605 l 1.87,0 0,-0.6462 q 0,-1.0588 -1.3475,-1.0588 -0.56375,0 -0.92125,0.1925 -0.34375,0.1788 -0.34375,0.5088 l 0,0.2475 -1.5125,0 0,-0.1925 q 0,-1.0588 0.825,-1.5538 0.825,-0.5087 1.96625,-0.5087 1.32,0 2.15875,0.5225 0.8525,0.5225 0.8525,1.7187 l 0,3.4238 q 0,1.2925 0.12375,1.5125 l -1.66375,0 q -0.0137,-0.069 -0.0412,-0.3575 l -0.0275,-0.2888 -0.0275,0 q -0.44,0.4675 -0.89375,0.6325 -0.45375,0.1513 -1.16875,0.1513 z m 0.45375,-1.32 q 0.92125,0 1.2375,-0.3713 0.33,-0.3712 0.33,-1.045 l 0,-0.3437 -1.65,0 q -1.1825,0 -1.1825,0.8662 0,0.8938 1.265,0.8938 z"
         style="font-style:normal;font-variant:normal;font-weight:bold;font-stretch:normal;font-size:13.75px;line-height:100%;font-family:RubFlama;-inkscape-font-specification:'RubFlama Bold';fill:#e7e7e7;fill-opacity:1"
         id="path5043" />
      <path
         d="m 153.34208,1034.5408 0,-7.04 1.6225,0 0,0.8525 0.0275,0 q 0.7425,-0.99 1.99375,-0.99 1.32,0 2.0075,1.045 l 0.0138,0 q 0.81125,-1.045 2.1725,-1.045 1.05875,0 1.76,0.6325 0.70125,0.6187 0.70125,1.8425 l 0,4.7025 -1.6775,0 0,-4.0975 q 0,-1.6088 -1.27875,-1.6088 -0.67375,0 -1.0175,0.4538 -0.33,0.4537 -0.33,1.1962 l 0,4.0563 -1.6775,0 0,-4.07 q 0,-1.6363 -1.27875,-1.6363 -0.5225,0 -0.94875,0.385 -0.4125,0.385 -0.4125,1.1825 l 0,4.1388 -1.6775,0 z"
         style="font-style:normal;font-variant:normal;font-weight:bold;font-stretch:normal;font-size:13.75px;line-height:100%;font-family:RubFlama;-inkscape-font-specification:'RubFlama Bold';fill:#e7e7e7;fill-opacity:1"
         id="path5045" />
      <path
         d="m 168.12204,1034.692 q -2.2275,0 -3.14875,-1.3612 l 1.1825,-0.8938 q 0.70125,0.9213 1.93875,0.9213 0.5775,0 0.97625,-0.2063 0.4125,-0.22 0.4125,-0.66 0,-0.385 -0.275,-0.5362 -0.275,-0.165 -1.045,-0.3025 l -0.92125,-0.165 q -1.925,-0.3438 -1.925,-1.8288 0,-1.0587 0.81125,-1.6775 0.81125,-0.6325 1.98,-0.6325 1.9525,0 2.76375,1.155 l -1.21,0.825 q -0.59125,-0.6875 -1.5675,-0.6875 -0.5225,0 -0.83875,0.2063 -0.3025,0.1925 -0.3025,0.5775 0,0.3025 0.275,0.44 0.28875,0.1237 0.89375,0.2337 0.11,0.014 0.165,0.027 l 1.05875,0.2063 q 1.88375,0.3712 1.88375,1.9662 0,1.1275 -0.94875,1.76 -0.94875,0.6325 -2.15875,0.6325 z"
         style="font-style:normal;font-variant:normal;font-weight:bold;font-stretch:normal;font-size:13.75px;line-height:100%;font-family:RubFlama;-inkscape-font-specification:'RubFlama Bold';fill:#e7e7e7;fill-opacity:1"
         id="path5047" />
      <path
         d="m 13.955535,1048.4283 q -1.1,0 -1.77375,-0.5638 -0.67375,-0.5775 -0.67375,-1.5675 0,-0.9762 0.75625,-1.5675 0.77,-0.605 1.8425,-0.605 l 1.87,0 0,-0.6462 q 0,-1.0588 -1.3475,-1.0588 -0.56375,0 -0.92125,0.1925 -0.34375,0.1788 -0.34375,0.5088 l 0,0.2475 -1.5125,0 0,-0.1925 q 0,-1.0588 0.825,-1.5538 0.825,-0.5087 1.96625,-0.5087 1.32,0 2.15875,0.5225 0.8525,0.5225 0.8525,1.7187 l 0,3.4238 q 0,1.2925 0.12375,1.5125 l -1.66375,0 q -0.01375,-0.069 -0.04125,-0.3575 l -0.0275,-0.2888 -0.0275,0 q -0.44,0.4675 -0.89375,0.6325 -0.45375,0.1513 -1.16875,0.1513 z m 0.45375,-1.32 q 0.92125,0 1.2375,-0.3713 0.33,-0.3712 0.33,-1.045 l 0,-0.3437 -1.65,0 q -1.1825,0 -1.1825,0.8662 0,0.8938 1.265,0.8938 z"
         style="font-style:normal;font-variant:normal;font-weight:bold;font-stretch:normal;font-size:13.75px;line-height:100%;font-family:RubFlama;-inkscape-font-specification:'RubFlama Bold';fill:#e7e7e7;fill-opacity:1"
         id="path5049" />
      <path
         d="m 19.40075,1048.2908 0,-7.04 1.63625,0 0,0.8662 0.0275,0 q 0.70125,-1.0037 1.99375,-1.0037 1.1825,0 1.815,0.7012 0.64625,0.7013 0.64625,1.9663 l 0,4.51 -1.6775,0 0,-4.0838 q 0,-1.6225 -1.30625,-1.6225 -1.4575,0 -1.4575,1.76 l 0,3.9463 -1.6775,0 z"
         style="font-style:normal;font-variant:normal;font-weight:bold;font-stretch:normal;font-size:13.75px;line-height:100%;font-family:RubFlama;-inkscape-font-specification:'RubFlama Bold';fill:#e7e7e7;fill-opacity:1"
         id="path5051" />
      <path
         d="m 29.690047,1048.4558 q -1.21,0 -1.99375,-0.7288 -0.78375,-0.7425 -0.78375,-2.0487 l 0,-1.705 q 0,-1.375 0.825,-2.1175 0.825,-0.7425 2.07625,-0.7425 1.1275,0 1.7875,0.8662 l 0.04125,0 0,-3.4925 1.6775,0 0,9.8038 -1.63625,0 0,-0.7838 -0.01375,0 q -0.28875,0.3988 -0.89375,0.6738 -0.59125,0.275 -1.08625,0.275 z m 0.45375,-1.4438 q 0.605,0 1.045,-0.3437 0.45375,-0.3438 0.45375,-1.045 l 0,-1.7325 q 0,-0.6188 -0.44,-0.99 -0.44,-0.3713 -1.11375,-0.3713 -0.605,0 -1.045,0.3438 -0.42625,0.3437 -0.42625,1.045 l 0,1.7462 q 0,0.6188 0.42625,0.99 0.42625,0.3575 1.1,0.3575 z"
         style="font-style:normal;font-variant:normal;font-weight:bold;font-stretch:normal;font-size:13.75px;line-height:100%;font-family:RubFlama;-inkscape-font-specification:'RubFlama Bold';fill:#e7e7e7;fill-opacity:1"
         id="path5053" />
      <path
         d="m 38.658055,1048.2908 0,-9.8038 3.8775,0 q 1.44375,0 2.37875,0.8113 0.94875,0.8112 0.94875,2.2687 0,0.935 -0.495,1.7325 -0.495,0.7838 -1.44375,1.1138 l 2.43375,3.8775 -1.99375,0 -2.29625,-3.6713 -1.58125,0 0,3.6713 -1.82875,0 z m 1.82875,-5.2113 1.82875,0 q 0.81125,0 1.27875,-0.385 0.48125,-0.3987 0.48125,-1.1412 0,-1.5263 -1.7875,-1.5263 l -1.80125,0 0,3.0525 z"
         style="font-style:normal;font-variant:normal;font-weight:bold;font-stretch:normal;font-size:13.75px;line-height:100%;font-family:RubFlama;-inkscape-font-specification:'RubFlama Bold';fill:#e7e7e7;fill-opacity:1"
         id="path5055" />
      <path
         d="m 49.431609,1048.4283 q -1.1,0 -1.77375,-0.5638 -0.67375,-0.5775 -0.67375,-1.5675 0,-0.9762 0.75625,-1.5675 0.77,-0.605 1.8425,-0.605 l 1.87,0 0,-0.6462 q 0,-1.0588 -1.3475,-1.0588 -0.56375,0 -0.92125,0.1925 -0.34375,0.1788 -0.34375,0.5088 l 0,0.2475 -1.5125,0 0,-0.1925 q 0,-1.0588 0.825,-1.5538 0.825,-0.5087 1.96625,-0.5087 1.32,0 2.15875,0.5225 0.8525,0.5225 0.8525,1.7187 l 0,3.4238 q 0,1.2925 0.12375,1.5125 l -1.66375,0 q -0.01375,-0.069 -0.04125,-0.3575 l -0.0275,-0.2888 -0.0275,0 q -0.44,0.4675 -0.89375,0.6325 -0.45375,0.1513 -1.16875,0.1513 z m 0.45375,-1.32 q 0.92125,0 1.2375,-0.3713 0.33,-0.3712 0.33,-1.045 l 0,-0.3437 -1.65,0 q -1.1825,0 -1.1825,0.8662 0,0.8938 1.265,0.8938 z"
         style="font-style:normal;font-variant:normal;font-weight:bold;font-stretch:normal;font-size:13.75px;line-height:100%;font-family:RubFlama;-inkscape-font-specification:'RubFlama Bold';fill:#e7e7e7;fill-opacity:1"
         id="path5057" />
      <path
         d="m 57.324324,1048.4558 q -1.21,0 -1.99375,-0.7288 -0.78375,-0.7425 -0.78375,-2.0487 l 0,-1.705 q 0,-1.375 0.825,-2.1175 0.825,-0.7425 2.07625,-0.7425 1.1275,0 1.7875,0.8662 l 0.04125,0 0,-3.4925 1.6775,0 0,9.8038 -1.63625,0 0,-0.7838 -0.01375,0 q -0.28875,0.3988 -0.89375,0.6738 -0.59125,0.275 -1.08625,0.275 z m 0.45375,-1.4438 q 0.605,0 1.045,-0.3437 0.45375,-0.3438 0.45375,-1.045 l 0,-1.7325 q 0,-0.6188 -0.44,-0.99 -0.44,-0.3713 -1.11375,-0.3713 -0.605,0 -1.045,0.3438 -0.42625,0.3437 -0.42625,1.045 l 0,1.7462 q 0,0.6188 0.42625,0.99 0.42625,0.3575 1.1,0.3575 z"
         style="font-style:normal;font-variant:normal;font-weight:bold;font-stretch:normal;font-size:13.75px;line-height:100%;font-family:RubFlama;-inkscape-font-specification:'RubFlama Bold';fill:#e7e7e7;fill-opacity:1"
         id="path5059" />
      <path
         d="m 62.772332,1048.2908 0,-7.04 1.6775,0 0,7.04 -1.6775,0 z m 0,-8.1125 0,-1.7875 1.6775,0 0,1.7875 -1.6775,0 z"
         style="font-style:normal;font-variant:normal;font-weight:bold;font-stretch:normal;font-size:13.75px;line-height:100%;font-family:RubFlama;-inkscape-font-specification:'RubFlama Bold';fill:#e7e7e7;fill-opacity:1"
         id="path5061" />
      <path
         d="m 69.164793,1048.4558 q -1.3475,0 -2.29625,-0.7288 -0.935,-0.7425 -0.935,-2.035 l 0,-1.6087 q 0,-1.3613 0.9625,-2.1588 0.9625,-0.7975 2.21375,-0.7975 1.33375,0 2.2825,0.8113 0.94875,0.8112 0.94875,2.1175 l 0,1.4437 q 0,1.3613 -0.9625,2.1588 -0.9625,0.7975 -2.21375,0.7975 z m 0,-1.4163 q 0.605,0 1.03125,-0.3437 0.44,-0.3438 0.44,-1.045 l 0,-1.7463 q 0,-0.6187 -0.42625,-0.9762 -0.42625,-0.3713 -1.1,-0.3713 -0.605,0 -1.045,0.3438 -0.42625,0.3437 -0.42625,1.045 l 0,1.7325 q 0,0.6187 0.42625,0.99 0.44,0.3712 1.1,0.3712 z"
         style="font-style:normal;font-variant:normal;font-weight:bold;font-stretch:normal;font-size:13.75px;line-height:100%;font-family:RubFlama;-inkscape-font-specification:'RubFlama Bold';fill:#e7e7e7;fill-opacity:1"
         id="path5063" />
      <path
         d="m 73.836785,1048.2908 0,-7.04 1.63625,0 0,0.8662 0.0275,0 q 0.70125,-1.0037 1.99375,-1.0037 1.1825,0 1.815,0.7012 0.64625,0.7013 0.64625,1.9663 l 0,4.51 -1.6775,0 0,-4.0838 q 0,-1.6225 -1.30625,-1.6225 -1.4575,0 -1.4575,1.76 l 0,3.9463 -1.6775,0 z"
         style="font-style:normal;font-variant:normal;font-weight:bold;font-stretch:normal;font-size:13.75px;line-height:100%;font-family:RubFlama;-inkscape-font-specification:'RubFlama Bold';fill:#e7e7e7;fill-opacity:1"
         id="path5065" />
      <path
         d="m 84.071082,1048.4283 q -1.1825,0 -1.82875,-0.715 -0.64625,-0.715 -0.64625,-1.9663 l 0,-4.4962 1.6775,0 0,4.0837 q 0,1.6225 1.32,1.6225 1.44375,0 1.44375,-1.7737 l 0,-3.9325 1.6775,0 0,7.04 -1.6225,0 0,-0.8663 -0.04125,0 q -0.70125,1.0038 -1.98,1.0038 z"
         style="font-style:normal;font-variant:normal;font-weight:bold;font-stretch:normal;font-size:13.75px;line-height:100%;font-family:RubFlama;-inkscape-font-specification:'RubFlama Bold';fill:#e7e7e7;fill-opacity:1"
         id="path5067" />
      <path
         d="m 92.396062,1048.4558 q -1.375,0 -2.3375,-0.7563 -0.94875,-0.77 -0.94875,-2.1175 l 0,-1.375 q 0,-1.43 0.92125,-2.255 0.935,-0.825 2.31,-0.825 1.25125,0 2.15875,0.7288 0.92125,0.715 0.92125,2.035 l 0,0.1375 -1.63625,0 0,-0.1375 q 0,-0.6738 -0.44,-1.0038 -0.42625,-0.3437 -1.00375,-0.3437 -0.605,0 -1.045,0.3575 -0.44,0.3575 -0.44,1.0862 l 0,1.65 q 0,0.66 0.42625,1.045 0.42625,0.3713 1.11375,0.3713 0.5775,0 0.97625,-0.33 0.4125,-0.3438 0.4125,-1.0175 l 0,-0.069 1.63625,0 0,0.069 q 0,1.32 -0.89375,2.035 -0.88,0.715 -2.13125,0.715 z"
         style="font-style:normal;font-variant:normal;font-weight:bold;font-stretch:normal;font-size:13.75px;line-height:100%;font-family:RubFlama;-inkscape-font-specification:'RubFlama Bold';fill:#e7e7e7;fill-opacity:1"
         id="path5069" />
      <path
         d="m 98.368933,1048.387 q -0.5775,0 -0.9625,-0.2062 -0.37125,-0.2063 -0.5225,-0.5638 -0.1375,-0.3712 -0.17875,-0.6187 -0.04125,-0.2475 -0.04125,-0.5913 l 0,-7.92 1.6775,0 0,7.9063 q 0,0.5775 0.605,0.5775 0.165,0 0.77,-0.055 l 0,1.2787 q -0.715,0.1925 -1.3475,0.1925 z"
         style="font-style:normal;font-variant:normal;font-weight:bold;font-stretch:normal;font-size:13.75px;line-height:100%;font-family:RubFlama;-inkscape-font-specification:'RubFlama Bold';fill:#e7e7e7;fill-opacity:1"
         id="path5071" />
      <path
         d="m 100.9071,1048.2908 0,-7.04 1.6775,0 0,7.04 -1.6775,0 z m 0,-8.1125 0,-1.7875 1.6775,0 0,1.7875 -1.6775,0 z"
         style="font-style:normal;font-variant:normal;font-weight:bold;font-stretch:normal;font-size:13.75px;line-height:100%;font-family:RubFlama;-inkscape-font-specification:'RubFlama Bold';fill:#e7e7e7;fill-opacity:1"
         id="path5073" />
      <path
         d="m 106.84581,1048.4558 q -1.21,0 -1.99375,-0.7288 -0.78375,-0.7425 -0.78375,-2.0487 l 0,-1.705 q 0,-1.375 0.825,-2.1175 0.825,-0.7425 2.07625,-0.7425 1.1275,0 1.7875,0.8662 l 0.0413,0 0,-3.4925 1.6775,0 0,9.8038 -1.63625,0 0,-0.7838 -0.0138,0 q -0.28875,0.3988 -0.89375,0.6738 -0.59125,0.275 -1.08625,0.275 z m 0.45375,-1.4438 q 0.605,0 1.045,-0.3437 0.45375,-0.3438 0.45375,-1.045 l 0,-1.7325 q 0,-0.6188 -0.44,-0.99 -0.44,-0.3713 -1.11375,-0.3713 -0.605,0 -1.045,0.3438 -0.42625,0.3437 -0.42625,1.045 l 0,1.7462 q 0,0.6188 0.42625,0.99 0.42625,0.3575 1.1,0.3575 z"
         style="font-style:normal;font-variant:normal;font-weight:bold;font-stretch:normal;font-size:13.75px;line-height:100%;font-family:RubFlama;-inkscape-font-specification:'RubFlama Bold';fill:#e7e7e7;fill-opacity:1"
         id="path5075" />
      <path
         d="m 115.25007,1048.4558 q -1.38875,0 -2.3375,-0.7425 -0.94875,-0.7563 -0.94875,-2.1313 l 0,-1.375 q 0,-1.43 0.92125,-2.255 0.935,-0.825 2.31,-0.825 1.25125,0 2.145,0.7288 0.89375,0.715 0.89375,2.035 l 0,1.3612 -4.52375,0 0,0.385 q 0,0.6463 0.4675,1.0313 0.4675,0.385 1.155,0.385 0.4125,0 0.825,-0.2475 0.4125,-0.2475 0.70125,-0.66 l 1.2925,0.7425 q -0.78375,1.5675 -2.90125,1.5675 z m -1.54,-4.3725 2.84625,0 0,-0.1925 q 0,-0.6738 -0.39875,-1.0038 -0.385,-0.3437 -0.9625,-0.3437 -0.605,0 -1.045,0.3575 -0.44,0.3575 -0.44,1.0862 l 0,0.096 z"
         style="font-style:normal;font-variant:normal;font-weight:bold;font-stretch:normal;font-size:13.75px;line-height:100%;font-family:RubFlama;-inkscape-font-specification:'RubFlama Bold';fill:#e7e7e7;fill-opacity:1"
         id="path5077" />
      <path
         d="m 122.44089,1048.442 q -2.2275,0 -3.14875,-1.3612 l 1.1825,-0.8938 q 0.70125,0.9213 1.93875,0.9213 0.5775,0 0.97625,-0.2063 0.4125,-0.22 0.4125,-0.66 0,-0.385 -0.275,-0.5362 -0.275,-0.165 -1.045,-0.3025 l -0.92125,-0.165 q -1.925,-0.3438 -1.925,-1.8288 0,-1.0587 0.81125,-1.6775 0.81125,-0.6325 1.98,-0.6325 1.9525,0 2.76375,1.155 l -1.21,0.825 q -0.59125,-0.6875 -1.5675,-0.6875 -0.5225,0 -0.83875,0.2063 -0.3025,0.1925 -0.3025,0.5775 0,0.3025 0.275,0.44 0.28875,0.1237 0.89375,0.2337 0.11,0.014 0.165,0.027 l 1.05875,0.2063 q 1.88375,0.3712 1.88375,1.9662 0,1.1275 -0.94875,1.76 -0.94875,0.6325 -2.15875,0.6325 z"
         style="font-style:normal;font-variant:normal;font-weight:bold;font-stretch:normal;font-size:13.75px;line-height:100%;font-family:RubFlama;-inkscape-font-specification:'RubFlama Bold';fill:#e7e7e7;fill-opacity:1"
         id="path5079" />
    </g>
    <path
       style="opacity:1;fill:#8dae10;fill-opacity:1;stroke:#8dae10;stroke-width:0.99999994;stroke-linejoin:round;stroke-miterlimit:4;stroke-dasharray:none;stroke-dashoffset:0;stroke-opacity:1"
       d="m 178.12851,981.86218 12.82274,0 0,13.26508 -12.82274,0 z"
       id="rect4169" />
    <path
       style="opacity:1;fill:#e7e7e7;fill-opacity:1;stroke:#e7e7e7;stroke-width:0.99999994;stroke-linejoin:round;stroke-miterlimit:4;stroke-dasharray:none;stroke-dashoffset:0;stroke-opacity:1"
       d="m 200.67726,981.86218 12.82274,0 0,13.26508 -12.82274,0 z"
       id="rect4171" />
    <path
       style="opacity:1;fill:#003560;fill-opacity:1;stroke:#e7e7e7;stroke-width:0.99999994;stroke-linejoin:round;stroke-miterlimit:4;stroke-dasharray:none;stroke-dashoffset:0;stroke-opacity:1"
       d="m 155.57976,981.86218 12.82274,0 0,13.26508 -12.82274,0 z"
       id="rect4173" />
  </g>
</svg>
